<svg width="867.54669" height="411.42667" xmlns="http://www.w3.org/2000/svg">
 <metadata id="metadata8">image/svg+xml</metadata>

 <g>
  <title>background</title>
  <rect fill="none" id="canvas_background" height="602" width="802" y="-1" x="-1"/>
 </g>
 <g>
  <title>Layer 1</title>
  <g transform="matrix(1.6371593234679516,0,0,-1.7077769828144844,-84.64955052054776,458.61097064061386) " id="g10">
   <g transform="translate(0,-5.684341886080802e-14) scale(0.10000000149011612) " id="g12">
    <path fill="#183655" fill-rule="nonzero" id="path14" d="m2970.94,1445.83113l494.17,543.94l16.94,-15.45l-348.25,-383.54l350.4,-642.961l-20.5,-10.57l-346.1,635.181l-146.66,-161.19l0,34.59zm-63.41,-103.89l0,-399.738l-22.57,0l0,1039.798l22.57,0l0,-605.51"/>
    <path fill="#183655" fill-rule="nonzero" id="path16" d="m4348.61,1428.83113l245.55,-442.249l0,995.419l23.31,0l0,-1039.798l-24.71,0l-244.28,439.088l0.13,47.54zm-63.48,66.34l-245.74,441.71l0,-994.678l-22.56,0l0,1039.798l24.63,0l243.61,-438.75l0.06,-48.08"/>
    <path fill="#183655" fill-rule="nonzero" id="path18" d="m4911.58,965.44113l0,-23.218l-107.41,0l0,23.218l107.41,0"/>
    <path fill="#183655" fill-rule="nonzero" id="path20" d="m3774.53,965.44113l0,-23.218l-107.41,0l0,23.218l107.41,0"/>
    <path fill="#183655" fill-rule="nonzero" id="path22" d="m5807.1,1219.50113l-23.22,0l0,720.28l-334.86,-557.68l-334.88,557.68l0,-997.578l-23.3,0l0,1039.798l24.71,0l333.47,-555.52l332.71,555.52l25.37,0l0,-762.5"/>
    <path fill="#183655" fill-rule="nonzero" id="path24" d="m1498.26,1588.63113l42.42,-165.21l-42.42,-44.76l0,209.97z"/>
    <path fill="#203965" fill-rule="nonzero" id="path26" d="m1216.04,1313.77113l49.11,101.67l-66.79,162.45l-55.25,35.36l-33.16,-7.74l-43.09,-27.62l0,-50.84l47.51,-54.15l67.41,22.1l57.47,-76.25l-23.21,-104.98"/>
    <path fill="#183655" fill-rule="nonzero" id="path28" d="m1684.36,993.97313l-35.37,-60.782l-96.15,-28.738l-17,-61.883l-35.36,-50.839l-2.25,-30.559l77.83,80.289l93.93,62.992l35.36,74.047l-20.99,15.473"/>
    <path fill="#183655" fill-rule="nonzero" id="path30" d="m1498.7,707.48113l163.8,-75.981l-138.14,-61.891l43.44,48.071l-48.24,26.89l-20.86,62.911"/>
    <path fill="#183655" fill-rule="nonzero" id="path32" d="m1998.37,2254.76113l-292.38,153.92l-207.29,15.73l29.56,-59.44l144.48,-8.55l325.63,-101.66"/>
    <path fill="#183655" fill-rule="nonzero" id="path34" d="m1964.48,2032.27113l-128.19,166.49l-254.93,66.16l-82.66,-37.6l32.92,-64.43l49.95,37.53l213.71,-24.42l169.2,-143.73"/>
    <path fill="#183655" fill-rule="nonzero" id="path36" d="m1519.48,2044.17113l41.09,31.19l177.92,-91.72l-100.14,9.93l133.29,-71.82l114.93,-74.04l-111.61,45.31l-82.55,13.26l-96.31,52.37l-97.4,-16.08l20.78,101.6"/>
    <path fill="#183655" fill-rule="nonzero" id="path38" d="m1664.46,1679.74113l-136.92,175.71l-28.84,-138.72l40.87,62.47l124.89,-99.46"/>
    <path fill="#183655" fill-rule="nonzero" id="path40" d="m1780.48,1313.77113l-49.11,101.67l66.8,162.45l55.25,35.36l33.15,-7.74l43.1,-27.62l0,-50.84l-47.52,-54.15l-67.41,22.1l-57.46,-76.25l23.2,-104.98"/>
    <path fill="#ffffff" fill-rule="nonzero" id="path42" d="m1855.89,1595.57113l0,-43.1l-33.15,0l-18.79,7.74l14.36,-40.89l37.58,-22.11l35.36,18.79l16.57,30.39l-51.93,49.18"/>
    <path fill="#ffffff" fill-rule="nonzero" id="path44" d="m1140.89,1595.57113l0,-43.1l33.16,0l18.78,7.74l-14.36,-40.89l-37.58,-22.11l-35.36,18.79l-16.57,30.39l51.93,49.18"/>
    <path fill="#183655" fill-rule="nonzero" id="path46" d="m1483.1,1111.07113l-44.96,-131.09l-139.63,30.96l62.93,-156.332l107.59,-84.976l-132.18,-110.223l123.51,-89.801l22.74,-134.839c0,0 -224.96,53.043 -262.82,87.05c-26.24,23.571 -41.59,97.93 -61.81,126.821c-19.62,28.011 -73.94,71.449 -95.04,98.351c-28.32,36.09 -60.45,128.629 -97.801,155.27c-28.438,20.269 -105.781,14.39 -136.027,31.859c-22.012,12.731 -56.407,52.442 -69.52,74.219c-34.199,56.821 -60.383,189.781 -86.203,250.861c-16.367,38.73 -57.469,112.3 -75.984,150.06c-16.7,34.06 -55.274,100.43 -65.032,137.08c-8.601,32.31 -11.875,99.94 -10.351,133.35c1.183,25.89 8.097,78.02 17.394,102.22c8.778,22.83 39.305,61.95 52.012,82.85c9.715,15.97 37.527,45.74 37.937,64.43c0.208,9.14 -10.507,26 -17.117,32.29c-11.066,10.54 -46.64,13.37 -55.312,25.94c-15.821,22.93 -13.399,83.69 -8.418,111.09c5.078,27.9 34.793,77.65 47.84,102.81c7.09,13.66 17.597,45.23 30.656,53.38c34.051,21.26 120.098,9.12 160.203,10.69c31.68,1.23 95.148,10.21 125.176,20.4c32.012,10.85 90.257,46.38 119.137,63.96c31.73,19.3 89.75,66.57 122.58,83.95c38.73,20.51 120.55,53.94 163.21,63.97c46.49,10.94 165.29,15.72 165.29,15.72l-79.41,-56.92l-78.12,-16.45l-93.99,-44.52l-53.17,-61.83l-125.38,-68.75l281.85,61.25l144.04,0l-141.46,-45.79l-171.46,-89.66l-176.984,-213.82l246.484,163.61l247.6,17.82l-26.6,-106.74l-268.16,-80.7l220.54,3.1l-363.14,-160.24l322.64,90.37l114.72,-46.21l-31.85,-143.13l-155.97,-217.57l-51.68,103.91l-101.67,74.03l-112.55,-66.44l-0.93,-92.75l37.57,-44.98l36.64,-42.24l70.49,23.22l33.39,-49.33l-48.71,-217.79l207.31,311.18l106.66,-218.43l11.3,-166.52"/>
    <path fill="#183655" fill-rule="nonzero" id="path48" d="m1562.55,2057.24113l65.71,0l172.79,299.27l-172.79,299.27l-130.03,0l0,-10l124.26,0l167.01,-289.27l-167.01,-289.27l-59.94,0l0,-10"/>
    <path fill="#183655" fill-rule="nonzero" id="path50" d="m1509.26,1468.48113l119,0l172.79,299.27l-172.79,299.28l-80.4,0l0,-10l74.63,0l167.01,-289.28l-167.01,-289.27l-113.23,0l0,-10"/>
    <path fill="#183655" fill-rule="nonzero" id="path52" d="m2134.89,2356.30113l0,5l-342.69,0l-172.79,-299.27l172.79,-299.28l345.57,0l172.79,299.28l-172.79,299.27l-2.88,0l0,-5l-4.34,-2.5l168.46,-291.77l-167.01,-289.28l-334.02,0l-167.02,289.28l167.02,289.27l336.91,0l0,5l-4.34,-2.5l4.34,2.5"/>
    <path fill="#183655" fill-rule="nonzero" id="path54" d="m1552.66,879.93013l75.6,0l172.79,299.271l-172.79,299.28l-122.71,0l0,-10l116.94,0l167.01,-289.28l-167.01,-289.271l-69.83,0l0,-10"/>
    <path fill="#183655" fill-rule="nonzero" id="path56" d="m2134.89,1767.75113l0,5l-342.69,0l-172.79,-299.27l172.79,-299.28l345.57,0l172.79,299.28l-172.79,299.27l-2.88,0l0,-5l-4.34,-2.5l168.46,-291.77l-167.01,-289.28l-334.02,0l-167.02,289.28l167.02,289.27l336.91,0l0,5l-4.34,-2.5l4.34,2.5"/>
    <path fill="#183655" fill-rule="nonzero" id="path58" d="m1498.23,291.28113l130.03,0l172.79,299.282l-172.79,299.269l-71.43,0l0,-10l65.66,0l167.01,-289.269l-167.01,-289.282l-124.26,0l0,-10"/>
    <path fill="#183655" fill-rule="nonzero" id="path60" d="m2134.89,1179.11113l0,5l-342.69,0l-172.79,-299.271l172.79,-299.277l345.57,0l172.79,299.269l-172.79,299.279l-2.88,0l0,-5l-4.34,-2.5l168.46,-291.771l-167.01,-289.277l-334.02,0l-167.02,289.269l167.02,289.279l336.91,0l0,5l-4.34,-2.5l4.34,2.5"/>
   </g>
  </g>
 </g>
</svg>